<svg xmlns="http://www.w3.org/2000/svg" viewBox="0 0 498.92 163"><defs><style>.cls-1{fill:#4285f4;}.cls-2{fill:#ea4335;}.cls-3{fill:#fbbc05;}.cls-4{fill:#34a853;}</style></defs><g id="Layer_2" data-name="Layer 2"><g id="Layer_1-2" data-name="Layer 1"><g id="Google"><g id="Google-2" data-name="Google"><g id="Group_115" data-name="Group 115"><path id="Path_46" data-name="Path 46" class="cls-1" d="M120.7,56.85H62.92v17h41.13c-2,23.84-21.84,34-40.56,34A44.67,44.67,0,0,1,18.63,63.36v-.77C18.63,36.85,38.56,17,63.54,17a44.13,44.13,0,0,1,30.63,12.3L106.07,17S90.79,0,62.93,0C27.45,0,0,30,0,62.3a63.27,63.27,0,0,0,63.83,62.6c33.44,0,57.91-22.91,57.91-56.78a51.42,51.42,0,0,0-1-11.27Z"/><path id="Path_47" data-name="Path 47" class="cls-2" d="M171.5,44.47c-23.95,0-41.12,18.72-41.12,40.56,0,22.16,16.65,41.24,41.41,41.24,22.4,0,40.76-17.13,40.76-40.76,0-27.09-21.35-41-41.05-41Zm.24,16.38c11.78,0,22.94,9.52,22.94,24.87,0,15-11.11,24.81-23,24.81-13.05,0-23.34-10.45-23.34-24.93,0-14.17,10.17-24.75,23.4-24.75Z"/><path id="Path_48" data-name="Path 48" class="cls-3" d="M260.42,44.47c-24,0-41.12,18.72-41.12,40.56,0,22.16,16.65,41.24,41.41,41.24,22.4,0,40.75-17.13,40.75-40.76,0-27.09-21.35-41-41-41Zm.24,16.38c11.78,0,22.94,9.52,22.94,24.87,0,15-11.12,24.81-23,24.81-13.05,0-23.35-10.45-23.35-24.93,0-14.17,10.17-24.75,23.41-24.75Z"/><path id="Path_49" data-name="Path 49" class="cls-1" d="M347.92,44.6c-21.94,0-39.18,19.21-39.18,40.78,0,24.56,20,40.85,38.8,40.85,11.63,0,17.82-4.61,22.38-9.91v8c0,14.12-8.49,22.57-21.31,22.57-12.38,0-18.59-9.29-20.74-14.57l-15.58,6.58c5.53,11.79,16.65,24.08,36.46,24.08,21.66,0,38.17-13.76,38.17-42.64V45.85h-17v7.94a28.78,28.78,0,0,0-22-9.39Zm1.8,15.94c10.78,0,21.86,9.2,21.86,24.92,0,16-11.05,24.78-22.09,24.78-11.72,0-22.62-9.51-22.62-24.62,0-15.71,11.32-25.08,22.86-25.08Z"/><path id="Path_50" data-name="Path 50" class="cls-2" d="M462.06,44.85c-20.73,0-38.15,16.5-38.15,40.85,0,25.76,19.41,41,40.14,41,17.31,0,27.93-9.47,34.27-17.95l-14.14-9.41c-3.67,5.69-9.8,11.26-20,11.26-11.5,0-16.79-6.3-20.06-12.4l54.84-22.75-2.85-6.67c-5.29-13.06-17.65-24-34-24Zm.72,15.29c7.47,0,12.85,4,15.13,8.74L441.29,84.19c-1.58-11.85,9.65-24,21.49-24Z"/><rect id="Rectangle_268" data-name="Rectangle 268" class="cls-4" x="398.92" y="2.85" width="17" height="121"/></g></g></g></g></g></svg>