<svg xmlns="http://www.w3.org/2000/svg" viewBox="0 0 496.94 370.58"><defs><style>.cls-1{fill:#7fcd31;}</style></defs><g id="Layer_2" data-name="Layer 2"><g id="Layer_1-2" data-name="Layer 1"><g id="Nvidia"><g id="Nvidia-2" data-name="Nvidia"><g id="Group_118" data-name="Group 118"><path id="Reg" d="M487.32,362.06v-1.53h1.42c.72-.59,1.69-.54,1.69.33s-.5,1.11-1.34,1.2h-1.77m0,1.52h1l2,3.06h2.22l-2.24-3.39a2,2,0,0,0,2.12-1.89c0-.1,0-.2,0-.3,0-1.94-1.33-2.56-3.59-3.59h-3v9.17h1.53v-3.06m9.61-.85a8.16,8.16,0,1,0-8.48,7.83h.34a7.73,7.73,0,0,0,8.13-7.29c0-.19,0-.37,0-.55m-2.29,0a5.78,5.78,0,0,1-5.53,6h-.26v0a6,6,0,1,1,5.79-6.24v.23Z"/><path id="NVIDIA-2-2" data-name="NVIDIA-2" d="M198.59,279.56v88.61H223V279.56ZM0,279.55v88.62H26V301H45.71c6.54,0,11.2,1.61,14.35,4.93,4,4.21,5.63,11,5.63,23.4v38.88H90.13V319.22c0-35-22.57-39.66-44.65-39.66Zm238.31,0v88.62H278.9c21.63,0,28.69-3.6,36.32-11.67,5.4-5.66,8.89-18.09,8.89-31.66,0-12.46-3-23.57-8.1-30.49-9.28-12.37-22.63-14.79-42.57-14.79Zm26,18.34h10.77c15.61,0,25.71,7,25.71,25.21s-10.1,25.21-25.71,25.21H264.28ZM161.91,279.56,141,349.79l-20-70.23H94l28.59,88.61h36.06l28.8-88.61Zm174.18,88.61h24.44V279.56H336.08Zm70.78-88.6-35,88.6h25.32l5.4-15.28H443l5.11,15.28h27.45l-35.24-88.61Zm16.25,14.89,15.21,41.63H407.42Z"/><path id="Eye_Mark" data-name="Eye Mark" class="cls-1" d="M165,70.27v-21q3.1-.22,6.3-.33c58.43-1.83,96.76,50.21,96.76,50.21s-41.4,57.5-85.79,57.5A53.64,53.64,0,0,1,165,153.84V89.07c22.74,2.75,27.32,12.79,41,35.59L236.4,99s-22.2-29.13-59.63-29.13a110.33,110.33,0,0,0-11.78.7M165,0V31.92s4.2-.3,6.31-.37c81.25-2.74,134.19,66.63,134.19,66.63s-60.8,73.94-124.15,73.94A93.4,93.4,0,0,1,165,170.68v19.73a108.78,108.78,0,0,0,13.62.88c58.94,0,101.58-30.1,142.85-65.73,6.84,5.48,34.86,18.81,40.63,24.65-39.26,32.86-130.72,59.34-182.58,59.34a101.14,101.14,0,0,1-13-.76v28h223V0Zm0,154.29v16.4c-54.52-9.72-69.66-66.4-69.66-66.4A117.88,117.88,0,0,1,165,70.59V89.07h0c-22.86-2.8-40.72,18.57-40.72,18.57s10,35.89,40.72,46.21m-96.84-52S100.47,54.15,165,49.22V31.92C93.52,37.66,31.64,98.18,31.64,98.18S66.69,199.52,165,208.79V190.41C92.85,181.33,68.15,101.82,68.15,101.82Z"/></g></g></g></g></g></svg>